<svg width="24" height="24" viewBox="0 0 24 24" fill="none" xmlns="http://www.w3.org/2000/svg">
<path d="M16.8989 20C16.4339 22.279 14.4139 24 11.9999 24C9.58594 24 7.56494 22.279 7.10094 20H16.8989ZM20.4999 7C22.4299 7 23.9999 5.43 23.9999 3.5C23.9999 1.57 22.4299 0 20.4999 0C18.5699 0 16.9999 1.57 16.9999 3.5C16.9999 5.43 18.5699 7 20.4999 7ZM20.7399 8.988C20.6599 8.991 20.5809 9 20.4999 9C17.4669 9 14.9999 6.533 14.9999 3.5C14.9999 2.596 15.2229 1.744 15.6119 0.991C14.4299 0.356 13.0859 0 11.6759 0C7.77494 0 4.39794 2.709 3.55194 6.516L1.20194 14.113C0.604938 16.043 2.04794 17.999 4.06794 17.999H19.7239C21.8039 17.999 23.2529 15.934 22.5449 13.978L20.7389 8.986L20.7399 8.988Z" fill="white"></path>
</svg>