<svg width="16" height="16" viewBox="0 0 16 16" fill="none" xmlns="http://www.w3.org/2000/svg">
<g clip-path="url(#clip0_159_4371)">
<path d="M16 4.66667V5.33333H0V4.66667C0 2.826 1.49267 1.33333 3.33333 1.33333H4V0.666667C4 0.298667 4.29867 0 4.66667 0C5.03467 0 5.33333 0.298667 5.33333 0.666667V1.33333H10.6667V0.666667C10.6667 0.298667 10.9653 0 11.3333 0C11.7013 0 12 0.298667 12 0.666667V1.33333H12.6667C14.5073 1.33333 16 2.826 16 4.66667ZM16 11.3333C16 13.9067 13.906 16 11.3333 16C8.76067 16 6.66667 13.9067 6.66667 11.3333C6.66667 8.76 8.76067 6.66667 11.3333 6.66667C13.906 6.66667 16 8.76 16 11.3333ZM12.6667 11.724L12 11.0573V10C12 9.632 11.7013 9.33333 11.3333 9.33333C10.9653 9.33333 10.6667 9.632 10.6667 10V11.3333C10.6667 11.51 10.7367 11.68 10.862 11.8047L11.724 12.6667C11.984 12.9267 12.4067 12.9267 12.6667 12.6667C12.9267 12.4067 12.9267 11.984 12.6667 11.724ZM5.33333 11.3333C5.33333 9.44733 6.20533 7.76667 7.566 6.66667H0V12.6667C0 14.5073 1.49267 16 3.33333 16H7.566C6.20533 14.9 5.33333 13.2193 5.33333 11.3333Z" fill="white"></path>
</g>
<defs>
<clipPath id="clip0_159_4371">
<rect width="16" height="16" fill="white"></rect>
</clipPath>
</defs>
</svg>