<svg width="16" height="16" viewBox="0 0 16 16" fill="none" xmlns="http://www.w3.org/2000/svg">
<g clip-path="url(#clip0_159_4365)">
<path d="M12 0C9.79067 0 8 1.79067 8 4C8 6.20933 9.79067 8 12 8C14.2093 8 16 6.20933 16 4C16 1.79067 14.2093 0 12 0ZM13.8047 4.862C14.0653 5.12267 14.0653 5.544 13.8047 5.80467C13.6747 5.93467 13.504 6 13.3333 6C13.1627 6 12.992 5.93467 12.862 5.80467L12 4.94267L11.138 5.80467C11.008 5.93467 10.8373 6 10.6667 6C10.496 6 10.3253 5.93467 10.1953 5.80467C9.93467 5.544 9.93467 5.12267 10.1953 4.862L11.0573 4L10.1953 3.138C9.93467 2.87733 9.93467 2.456 10.1953 2.19533C10.456 1.93467 10.8773 1.93467 11.138 2.19533L12 3.05733L12.862 2.19533C13.1227 1.93467 13.544 1.93467 13.8047 2.19533C14.0653 2.456 14.0653 2.87733 13.8047 3.138L12.9427 4L13.8047 4.862ZM9.93067 8.91533L9.33333 9.58733V15.334C9.33333 15.5867 9.19067 15.8173 8.96467 15.9307C8.87 15.978 8.768 16.0007 8.66667 16.0007C8.52533 16.0007 8.38467 15.9553 8.26667 15.8673L5.6 13.8673C5.432 13.742 5.33333 13.544 5.33333 13.334V9.58733L0.656 4.32533C0.232667 3.84867 0 3.236 0 2.59867C0 1.166 1.166 0 2.59867 0H8.484C7.37267 0.978 6.66667 2.40667 6.66667 4C6.66667 6.20733 8.01467 8.10533 9.93067 8.91533Z" fill="white"></path>
</g>
<defs>
<clipPath id="clip0_159_4365">
<rect width="16" height="16" fill="white"></rect>
</clipPath>
</defs>
</svg>