<svg width="25" height="25" viewBox="0 0 25 25" fill="none" xmlns="http://www.w3.org/2000/svg">
<g clip-path="url(#clip0_159_4342)">
<path d="M9.375 4.16667C9.375 1.86562 12.8729 0 17.1875 0C21.5021 0 25 1.86562 25 4.16667C25 6.46771 21.5021 8.33333 17.1875 8.33333C12.8729 8.33333 9.375 6.46771 9.375 4.16667ZM17.1875 10.4167C16.1177 10.4167 15.1031 10.2969 14.176 10.0885C12.7604 9.02708 10.4406 8.33333 7.8125 8.33333C3.49792 8.33333 0 10.199 0 12.5C0 14.801 3.49792 16.6667 7.8125 16.6667C12.1271 16.6667 15.625 14.801 15.625 12.5C15.625 12.4698 15.6177 12.4406 15.6167 12.4104H15.625V14.5833C15.625 16.8844 12.1271 18.75 7.8125 18.75C3.49792 18.75 0 16.8844 0 14.5833V16.6667C0 18.9677 3.49792 20.8333 7.8125 20.8333C12.1271 20.8333 15.625 18.9677 15.625 16.6667V18.75C15.625 21.051 12.1271 22.9167 7.8125 22.9167C3.49792 22.9167 0 21.051 0 18.75V20.8333C0 23.1344 3.49792 25 7.8125 25C12.1271 25 15.625 23.1344 15.625 20.8333V20.75C16.1302 20.8042 16.6521 20.8333 17.1875 20.8333C21.5021 20.8333 25 18.9677 25 16.6667V14.5833C25 16.7906 21.7792 18.5927 17.7083 18.7365V16.6531C21.7792 16.5094 25 14.7083 25 12.5V10.4167C25 12.624 21.7792 14.426 17.7083 14.5698V12.4865C21.7792 12.3427 25 10.5417 25 8.33333V6.25C25 8.55104 21.5021 10.4167 17.1875 10.4167Z" fill="white"></path>
</g>
<defs>
<clipPath id="clip0_159_4342">
<rect width="25" height="25" fill="white"></rect>
</clipPath>
</defs>
</svg>