<svg width="25" height="25" viewBox="0 0 25 25" fill="none" xmlns="http://www.w3.org/2000/svg">
<path d="M23.7146 4.75587C23.3339 4.59731 22.9147 4.55564 22.5103 4.63615C22.1059 4.71666 21.7346 4.91571 21.4437 5.20795L18.75 7.9017L13.9729 3.12462C13.5822 2.73406 13.0524 2.51465 12.5 2.51465C11.9476 2.51465 11.4178 2.73406 11.0271 3.12462L6.25 7.9017L3.55625 5.20795C3.26489 4.91668 2.89372 4.71834 2.48965 4.63799C2.08558 4.55764 1.66676 4.5989 1.28614 4.75654C0.905512 4.91419 0.580172 5.18114 0.351247 5.52366C0.122321 5.86619 8.79673e-05 6.26889 0 6.68087L0 17.708C0.00165402 19.0888 0.550919 20.4126 1.52731 21.389C2.50371 22.3654 3.82751 22.9146 5.20833 22.9163H19.7917C21.1725 22.9146 22.4963 22.3654 23.4727 21.389C24.4491 20.4126 24.9983 19.0888 25 17.708V6.68087C25.0001 6.26886 24.878 5.86607 24.6492 5.52342C24.4204 5.18078 24.0952 4.91367 23.7146 4.75587Z" fill="white"></path>
</svg>