<svg width="24" height="24" viewBox="0 0 24 24" fill="none" xmlns="http://www.w3.org/2000/svg">
<g clip-path="url(#clip0_159_4375)">
<path d="M23.9001 11.4366C23.5072 8.41199 21.9773 5.65051 19.6214 3.71341C17.2655 1.77632 14.2605 0.808982 11.217 1.00802C8.17347 1.20706 5.31996 2.55753 3.23644 4.78495C1.15291 7.01237 -0.00428024 9.94958 7.4054e-05 12.9996C-0.00569035 14.6321 0.325132 16.2483 0.971889 17.7472C1.61865 19.2462 2.56745 20.5957 3.75907 21.7116C4.67041 22.5553 5.87123 23.0165 7.11307 22.9996H16.8801C18.192 23.0027 19.4525 22.4893 20.3891 21.5706C21.7238 20.272 22.7364 18.6794 23.346 16.9198C23.9556 15.1602 24.1453 13.2825 23.9001 11.4366ZM7.47207 19.6606C7.3853 19.7592 7.27994 19.8399 7.162 19.8978C7.04406 19.9557 6.91586 19.9898 6.78473 19.9982C6.65359 20.0066 6.5221 19.989 6.39776 19.9465C6.27342 19.904 6.15867 19.8374 6.06007 19.7506C4.68566 18.5439 3.71184 16.9468 3.26851 15.1724C2.82519 13.398 2.93342 11.5306 3.57879 9.81929C4.22416 8.10798 5.37597 6.63412 6.8806 5.59432C8.38522 4.55452 10.1711 3.9982 12.0001 3.99957C12.7586 3.9998 13.5141 4.09487 14.2491 4.28257C14.3763 4.3154 14.4959 4.37298 14.6009 4.452C14.7059 4.53103 14.7943 4.62997 14.861 4.74316C14.9278 4.85636 14.9716 4.98159 14.99 5.11172C15.0083 5.24185 15.0009 5.37432 14.9681 5.50157C14.9352 5.62882 14.8777 5.74836 14.7986 5.85336C14.7196 5.95836 14.6207 6.04677 14.5075 6.11353C14.3943 6.1803 14.2691 6.22412 14.1389 6.24248C14.0088 6.26085 13.8763 6.2534 13.7491 6.22057C12.2256 5.8257 10.6134 5.95621 9.17329 6.59101C7.73315 7.2258 6.54922 8.32778 5.81291 9.71876C5.0766 11.1097 4.83096 12.7084 5.11571 14.2563C5.40045 15.8041 6.19895 17.2107 7.38207 18.2486C7.48075 18.3353 7.56136 18.4407 7.61929 18.5586C7.67722 18.6766 7.71134 18.8048 7.7197 18.9359C7.72806 19.0671 7.71049 19.1985 7.668 19.3229C7.62551 19.4472 7.55893 19.562 7.47207 19.6606ZM12.0001 14.9996C11.7134 15.0034 11.4292 14.9455 11.1669 14.8298C10.9046 14.7141 10.6701 14.5434 10.4796 14.3292C10.289 14.115 10.1467 13.8624 10.0623 13.5884C9.97789 13.3144 9.95341 13.0254 9.99049 12.7411C10.0276 12.4568 10.1253 12.1838 10.2772 11.9406C10.429 11.6974 10.6313 11.4897 10.8705 11.3315C11.1096 11.1734 11.38 11.0685 11.6632 11.024C11.9465 10.9795 12.2359 10.9964 12.5121 11.0736L16.2931 7.29257C16.3853 7.19706 16.4957 7.12088 16.6177 7.06847C16.7397 7.01606 16.8709 6.98848 17.0037 6.98732C17.1365 6.98617 17.2681 7.01147 17.391 7.06175C17.5139 7.11203 17.6256 7.18628 17.7195 7.28018C17.8134 7.37407 17.8876 7.48572 17.9379 7.60862C17.9882 7.73151 18.0135 7.86319 18.0123 7.99597C18.0112 8.12875 17.9836 8.25997 17.9312 8.38198C17.8788 8.50398 17.8026 8.61432 17.7071 8.70657L13.9261 12.4876C14.0095 12.7833 14.0227 13.0945 13.9648 13.3963C13.9068 13.6981 13.7793 13.9822 13.5923 14.226C13.4053 14.4699 13.1641 14.6668 12.8877 14.8011C12.6113 14.9354 12.3073 15.0033 12.0001 14.9996ZM17.9401 19.7506C17.7401 19.9184 17.4825 20.0014 17.2222 19.9818C16.9619 19.9623 16.7195 19.8417 16.5469 19.6459C16.3743 19.45 16.2851 19.1944 16.2984 18.9337C16.3117 18.673 16.4264 18.4278 16.6181 18.2506C17.5904 17.3978 18.3072 16.292 18.6887 15.0563C19.0703 13.8205 19.1015 12.5031 18.7791 11.2506C18.7128 10.9936 18.7513 10.7208 18.8861 10.4922C19.0209 10.2636 19.2411 10.0979 19.4981 10.0316C19.7551 9.96527 20.0279 10.0038 20.2565 10.1386C20.4851 10.2734 20.6508 10.4936 20.7171 10.7506C20.9048 11.4855 20.9999 12.241 21.0001 12.9996C20.9986 14.2776 20.7249 15.5407 20.1973 16.7047C19.6697 17.8687 18.9002 18.9071 17.9401 19.7506Z" fill="white"></path>
</g>
<defs>
<clipPath id="clip0_159_4375">
<rect width="24" height="24" fill="white"></rect>
</clipPath>
</defs>
</svg>