<svg width="16" height="16" viewBox="0 0 16 16" fill="none" xmlns="http://www.w3.org/2000/svg">
<path d="M7.33333 14.6663C7.192 14.6663 7.05133 14.621 6.93333 14.533L4.26667 12.533C4.09867 12.4077 4 12.2097 4 11.9997V9.57967L0.629333 5.64701C0.223333 5.17367 0 4.56967 0 3.94634C0 2.50501 1.172 1.33301 2.61333 1.33301H9.38667C10.828 1.33301 12 2.50501 12 3.94634C12 4.56967 11.7767 5.17367 11.3707 5.64701L8 9.57967V13.9997C8 14.2523 7.85733 14.483 7.63133 14.5963C7.53667 14.6437 7.43467 14.6663 7.33333 14.6663ZM16 13.333C16 12.965 15.7013 12.6663 15.3333 12.6663H10C9.632 12.6663 9.33333 12.965 9.33333 13.333C9.33333 13.701 9.632 13.9997 10 13.9997H15.3333C15.7013 13.9997 16 13.701 16 13.333ZM16 10.6663C16 10.2983 15.7013 9.99967 15.3333 9.99967H10C9.632 9.99967 9.33333 10.2983 9.33333 10.6663C9.33333 11.0343 9.632 11.333 10 11.333H15.3333C15.7013 11.333 16 11.0343 16 10.6663ZM16 7.99967C16 7.63167 15.7013 7.33301 15.3333 7.33301H12C11.632 7.33301 11.3333 7.63167 11.3333 7.99967C11.3333 8.36767 11.632 8.66634 12 8.66634H15.3333C15.7013 8.66634 16 8.36767 16 7.99967Z" fill="white"></path>
</svg>