<svg width="25" height="25" viewBox="0 0 25 25" fill="none" xmlns="http://www.w3.org/2000/svg">
<g clip-path="url(#clip0_159_4358)">
<path d="M4.21146 8.40729C4.6875 0.589583 9.06875 0.0270833 9.27083 0.00625C9.30542 0.00228453 9.34019 0.000198128 9.375 0C10.2779 0.0358934 11.1514 0.331376 11.8906 0.851042C12.069 0.977037 12.2821 1.04468 12.5005 1.04468C12.7189 1.04468 12.932 0.977037 13.1104 0.851042C13.8493 0.331353 14.7224 0.0358573 15.625 0C15.6615 5.08543e-06 15.6981 0.0020918 15.7344 0.00625C15.9312 0.0270833 20.3177 0.589583 20.7885 8.40729C20.7992 8.56786 20.7589 8.7277 20.6735 8.86404C20.588 9.00039 20.4617 9.10629 20.3125 9.16667C17.8101 10.0709 15.1596 10.4949 12.5 10.4167C9.84041 10.4948 7.18993 10.0708 4.6875 9.16667C4.53833 9.10629 4.41202 9.00039 4.32655 8.86404C4.24107 8.7277 4.2008 8.56786 4.21146 8.40729ZM23.6385 10.4052C23.4828 10.296 23.2987 10.2344 23.1085 10.2279C22.9184 10.2214 22.7305 10.2704 22.5677 10.3688C21.4208 11.0417 18.2687 12.5 12.5 12.5C6.73125 12.5 3.58021 11.0417 2.43229 10.3688C2.26948 10.2704 2.08158 10.2214 1.89146 10.2279C1.70134 10.2344 1.51721 10.296 1.36146 10.4052C0.984811 10.6216 0.664959 10.9243 0.428255 11.2885C0.191551 11.6527 0.0447679 12.0679 0 12.5C0 16.3438 6.45208 16.6667 12.5 16.6667C18.5479 16.6667 25 16.3438 25 12.5C24.9552 12.0679 24.8084 11.6527 24.5717 11.2885C24.335 10.9243 24.0152 10.6216 23.6385 10.4052ZM17.1875 17.7083C16.4646 17.7092 15.7582 17.9249 15.1582 18.3282C14.5582 18.7314 14.0916 19.3039 13.8177 19.9729C12.9559 19.7312 12.0441 19.7312 11.1823 19.9729C10.8497 19.1667 10.2388 18.5067 9.46057 18.113C8.68237 17.7194 7.78869 17.6182 6.94219 17.828C6.09569 18.0378 5.35267 18.5446 4.84835 19.2561C4.34404 19.9676 4.11198 20.8365 4.1944 21.7047C4.27682 22.5729 4.66825 23.3826 5.29743 23.9865C5.92662 24.5904 6.75174 24.9483 7.62259 24.9951C8.49344 25.0418 9.35212 24.7743 10.0423 24.2413C10.7326 23.7082 11.2084 22.945 11.3833 22.0906C11.7421 21.9611 12.1188 21.8884 12.5 21.875C12.8812 21.8883 13.258 21.961 13.6167 22.0906C13.7559 22.7659 14.0839 23.3879 14.5624 23.8843C15.0409 24.3808 15.6504 24.7314 16.3202 24.8954C16.9899 25.0594 17.6924 25.0301 18.3462 24.8109C18.9999 24.5918 19.5781 24.1917 20.0137 23.6572C20.4493 23.1226 20.7243 22.4755 20.8069 21.791C20.8895 21.1064 20.7763 20.4125 20.4804 19.7897C20.1845 19.1669 19.7181 18.6407 19.1353 18.2723C18.5524 17.9039 17.877 17.7084 17.1875 17.7083Z" fill="white"></path>
</g>
<defs>
<clipPath id="clip0_159_4358">
<rect width="25" height="25" fill="white"></rect>
</clipPath>
</defs>
</svg>