<svg width="25" height="24" viewBox="0 0 25 24" fill="none" xmlns="http://www.w3.org/2000/svg">
<path d="M15.2475 0H16.1634L17.0792 0.0742574L17.896 0.19802L18.6386 0.371287L19.2079 0.544555L19.8762 0.816832L20.4703 1.08911L21.0396 1.41089L21.4356 1.68317L21.8564 2.00495L22.1782 2.30198L22.6485 2.77228L22.8218 2.9703L23.1188 3.34158L23.5644 4.0099L23.7871 4.40594L24.0594 4.97525L24.3069 5.59406L24.505 6.18812L24.7277 7.10396L24.8515 7.89604L24.9505 8.78713L24.9752 9.20792L25 10.0495V23.0941L24.9505 23.1436L24.802 23.1683H0.049505L0 22.9951V1.06436L0.0247525 0.470297L0.049505 0.445545H8.91089L8.9604 0.594059V1.48515L8.93564 2.57426L9.18317 2.40099L9.50495 2.12871L9.90099 1.83168L10.2228 1.60891L10.6931 1.31188L11.4604 0.915842L12.0297 0.668317L12.5248 0.49505L13.2178 0.29703L13.9356 0.148515L14.7277 0.049505L15.2475 0Z" fill="white"></path>
<path d="M9.15836 10.1733H9.92568L9.95044 10.1981L10.0247 10.6189L10.2475 11.1387L10.4207 11.3615L10.6435 11.5595L10.99 11.7327L11.3118 11.807H11.9306L12.3514 11.708L12.5742 11.609L12.7722 11.4605L12.9455 11.2624L13.193 10.7426L13.292 10.3961L13.3415 10.1981L13.589 10.1733H14.9752L15.0494 10.4951L15.1485 10.8664L15.3465 11.3367L15.5445 11.609L15.6435 11.7327L15.891 11.906L16.1386 12.0298L16.5098 12.1288L16.7574 12.1535H17.0049L17.3267 12.104L17.7475 11.9555L18.0197 11.7823L18.1435 11.6832L18.3168 11.4852L18.49 11.2129L18.6138 10.9159L18.7128 10.5199L18.7623 10.1981L20.0494 10.1733H20.6683V10.5199L20.594 11.1139L20.4455 11.7327L20.297 12.1783L20.0989 12.5743L19.8514 12.9704L19.6039 13.2922L19.3069 13.5892L19.0593 13.7872L18.7376 13.9852L18.2673 14.208L17.797 14.3565L17.5247 14.406L17.1039 14.4308L16.5346 14.406L16.0148 14.307L15.6683 14.1832L15.2722 13.9852L14.8514 13.6882L14.6039 13.4654L14.3811 13.1931L14.1831 12.8714L14.0346 12.5743L13.9851 12.5496L13.8613 12.7723L13.6138 13.1189L13.292 13.4407L12.8465 13.7624L12.4504 13.9605L12.0544 14.0842L11.5346 14.1585H11.2128L10.7673 14.109L10.3712 14.01L10.0989 13.911L9.70291 13.7129L9.38113 13.4654L9.0841 13.1931L8.86133 12.9209L8.68806 12.6486L8.49004 12.3021L8.26727 11.6832L8.1435 11.1882L8.06925 10.6931L8.04449 10.4456V10.2228L8.19301 10.1981L9.15836 10.1733Z" fill="#020B20"></path>
<path d="M9.406 16.8062H14.9258L14.9506 16.8309V17.5487L14.9258 18.019L14.9011 18.118L12.8218 18.1428H11.411L9.52977 18.118L9.25749 18.0685L9.05947 17.9448L8.91096 17.722L8.86145 17.5735V17.2764L8.96046 17.0784L9.13373 16.9052L9.28224 16.8309L9.406 16.8062Z" fill="#020B20"></path>
</svg>